<?xml version="1.0" standalone="no"?>
<!DOCTYPE svg PUBLIC "-//W3C//DTD SVG 20010904//EN"
 "http://www.w3.org/TR/2001/REC-SVG-20010904/DTD/svg10.dtd">
<svg version="1.0" xmlns="http://www.w3.org/2000/svg"
 width="250.000000pt" height="250.000000pt" viewBox="0 0 250.000000 250.000000"
 preserveAspectRatio="xMidYMid meet">
<metadata>
Created by potrace 1.11, written by Peter Selinger 2001-2013
</metadata>
<g transform="translate(0.000000,250.000000) scale(0.100000,-0.100000)"
fill="#000000" stroke="none">
<path d="M0 1250 l0 -1250 1250 0 1250 0 0 1250 0 1250 -1250 0 -1250 0 0
-1250z m1441 1186 c499 -81 887 -450 995 -946 25 -114 25 -360 1 -478 -91
-433 -392 -770 -812 -910 -232 -77 -515 -75 -755 5 -348 116 -641 407 -754
751 -49 147 -59 216 -60 392 0 177 17 275 70 418 151 400 509 696 928 766 108
18 281 19 387 2z"/>
<path d="M1064 2365 c-224 -41 -420 -138 -579 -286 -239 -223 -366 -513 -366
-837 -1 -243 59 -442 195 -646 61 -92 211 -243 301 -303 164 -110 399 -193
546 -193 l39 0 0 453 0 453 -75 74 -75 74 0 268 0 267 -30 16 c-84 43 -59 169
36 182 33 4 45 1 72 -22 28 -23 32 -33 32 -74 0 -38 -5 -52 -25 -71 -24 -22
-25 -29 -25 -137 l0 -114 65 57 65 58 0 144 0 144 -40 37 c-40 36 -43 45 -41
92 1 31 41 74 77 83 32 8 87 -18 104 -49 24 -46 17 -85 -23 -122 l-37 -33 0
-159 0 -159 -85 -78 -85 -77 0 -112 0 -111 43 -42 43 -42 82 83 82 82 0 225 0
225 74 75 74 74 -5 54 c-5 48 -3 55 22 82 58 61 165 23 165 -58 0 -66 -38
-105 -102 -105 -25 0 -45 -14 -104 -71 l-73 -71 -3 -227 -3 -228 -73 -73 -72
-73 2 -499 3 -500 55 3 c484 24 900 352 1038 818 55 185 61 394 16 592 -82
357 -372 682 -722 806 -176 62 -412 83 -588 51z m334 -35 c372 -47 694 -285
857 -633 110 -237 131 -503 59 -754 -86 -304 -304 -559 -592 -695 -92 -43
-243 -86 -340 -95 l-62 -6 2 344 3 344 73 49 72 50 0 141 0 141 90 62 90 63 0
64 c0 36 -4 65 -9 65 -4 0 -20 12 -35 26 -20 21 -26 36 -26 71 0 62 40 103
100 103 35 0 48 -6 77 -35 32 -32 35 -39 30 -78 -4 -32 -14 -49 -41 -72 -35
-29 -36 -32 -36 -97 l0 -67 -90 -63 -89 -63 -1 -103 c0 -95 1 -102 18 -92 9 6
89 63 177 128 l160 118 3 153 3 153 -36 32 c-28 24 -38 41 -42 73 -5 39 -2 46
30 78 48 48 95 49 143 1 48 -48 47 -95 -1 -143 l-35 -35 0 -164 0 -164 -232
-173 -233 -172 39 -3 c31 -3 59 7 130 44 149 76 153 80 160 122 15 96 149 124
191 41 51 -98 -38 -194 -138 -148 -21 9 -41 2 -155 -55 l-132 -66 -100 0 -100
0 0 -250 c0 -137 3 -250 8 -250 15 0 139 32 180 45 169 58 358 202 454 347
112 168 160 324 161 523 1 283 -94 499 -305 691 -286 260 -720 312 -1058 127
-87 -47 -132 -81 -216 -163 -123 -119 -202 -260 -246 -440 -27 -106 -28 -298
-4 -407 70 -317 295 -571 603 -678 41 -14 69 -30 71 -40 4 -20 -24 -14 -128
27 -467 183 -714 703 -563 1182 101 322 356 567 675 650 120 31 240 40 350 26
247 -30 436 -124 599 -298 435 -462 325 -1192 -228 -1508 -81 -46 -223 -97
-305 -109 l-48 -7 0 -40 0 -41 51 7 c124 17 315 96 435 182 171 122 317 321
383 524 56 170 64 396 20 570 -42 169 -145 352 -266 475 -220 224 -555 344
-853 306 -423 -52 -757 -327 -883 -726 -66 -211 -61 -449 14 -655 96 -262 278
-463 532 -587 85 -42 263 -97 280 -86 4 2 7 139 7 305 l0 300 -68 70 -68 70
-123 -1 -123 -2 -96 95 c-85 83 -100 94 -125 89 -56 -11 -117 38 -117 96 0 89
109 134 172 71 28 -28 30 -35 26 -81 l-5 -49 81 -80 81 -80 78 0 79 0 -26 31
c-21 24 -26 41 -26 84 l0 54 -85 67 -85 67 0 159 c0 87 -4 158 -9 158 -4 0
-20 12 -35 26 -38 39 -37 110 2 146 49 47 107 44 153 -8 40 -46 24 -133 -28
-157 -23 -10 -23 -13 -23 -158 l0 -147 49 -36 c27 -20 51 -36 55 -36 3 0 6 36
6 79 0 77 -1 80 -35 114 -46 46 -48 92 -6 139 25 28 36 33 72 32 35 -1 48 -8
71 -33 41 -46 39 -94 -7 -137 l-35 -33 0 -168 0 -168 125 -125 125 -125 0
-342 c0 -188 -3 -344 -8 -347 -11 -7 -178 29 -252 54 -204 71 -419 239 -543
427 -209 315 -240 720 -82 1060 206 440 657 692 1133 633z"/>
<path d="M667 1772 c-21 -23 -22 -46 -1 -66 30 -31 84 -9 84 34 0 24 -26 50
-49 50 -10 0 -25 -8 -34 -18z"/>
<path d="M1882 1698 c-7 -7 -12 -21 -12 -33 0 -12 5 -26 12 -33 7 -7 21 -12
33 -12 12 0 26 5 33 12 7 7 12 21 12 33 0 12 -5 26 -12 33 -7 7 -21 12 -33 12
-12 0 -26 -5 -33 -12z"/>
<path d="M1652 1598 c-17 -17 -15 -53 3 -68 20 -17 62 -5 70 20 14 44 -41 80
-73 48z"/>
<path d="M832 1578 c-15 -15 -15 -61 0 -76 7 -7 24 -12 38 -12 32 0 50 17 50
46 0 44 -58 72 -88 42z"/>
<path d="M447 1272 c-22 -24 -21 -45 1 -65 24 -22 45 -21 65 1 22 24 21 45 -1
65 -24 22 -45 21 -65 -1z"/>
<path d="M1874 1055 c-15 -23 -15 -27 0 -50 20 -30 56 -33 79 -7 22 24 21 45
-1 65 -27 24 -59 21 -78 -8z"/>
<path d="M1226 2027 c-24 -17 -18 -65 11 -84 20 -14 24 -13 47 10 30 30 25 64
-11 78 -30 11 -26 11 -47 -4z"/>
<path d="M1555 1957 c-18 -27 -12 -53 17 -68 27 -15 57 -2 64 28 14 55 -50 87
-81 40z"/>
<path d="M1032 1828 c-7 -7 -12 -24 -12 -40 0 -50 66 -62 91 -17 23 43 -44 92
-79 57z"/>
</g>
</svg>
